<?xml version="1.0" encoding="utf-8"?>
<!-- Generator: Adobe Illustrator 23.0.1, SVG Export Plug-In . SVG Version: 6.00 Build 0)  -->
<svg version="1.1" id="Layer_1" xmlns="http://www.w3.org/2000/svg" xmlns:xlink="http://www.w3.org/1999/xlink" x="0px" y="0px"
	 viewBox="0 0 512 512" style="enable-background:new 0 0 512 512;" xml:space="preserve">
<style type="text/css">
	.st0{fill-rule:evenodd;clip-rule:evenodd;fill:#1B1B1B;}
</style>
<path class="st0" d="M452.6,388.5c-1,0.6-2.1,0.8-3.3,0.8c-1.2,0-2.4-0.3-3.5-1L336,321.3V376c0,7.3-6,13.3-13.3,13.3H69.3
	c-7.4,0-13.3-6-13.3-13.3V136.3c0-7.3,6-13.6,13.3-13.6h253.3c7.3,0,13.3,6.3,13.3,13.6V191L445.9,124c2.1-1.3,4.6-1.3,6.7-0.1
	c2.1,1.2,3.4,3.4,3.4,5.8v253C456,385.1,454.7,387.3,452.6,388.5z M442.7,141.5l-109.9,67.1c-0.1,0.1-0.3,0.1-0.5,0.2
	c-0.4,0.2-0.8,0.3-1.3,0.5c-0.4,0.1-0.8,0.2-1.3,0.3c-0.2,0-0.3,0.1-0.5,0.1c-0.3,0-0.5-0.1-0.7-0.2c-0.5,0-0.9-0.1-1.3-0.3
	c-0.4-0.1-0.8-0.3-1.1-0.5c-0.4-0.2-0.7-0.4-1-0.7c-0.4-0.3-0.6-0.6-0.9-1c-0.2-0.2-0.4-0.3-0.5-0.6c-0.1-0.1-0.1-0.3-0.2-0.5
	c-0.2-0.4-0.3-0.8-0.5-1.2c-0.1-0.4-0.2-0.9-0.3-1.3c0-0.2-0.1-0.3-0.1-0.5V136H69.3v240h253.3v-66.6c0-0.2,0.1-0.3,0.1-0.5
	c0-0.5,0.1-0.9,0.3-1.3c0.1-0.4,0.2-0.8,0.5-1.2c0.1-0.1,0.1-0.3,0.2-0.5c0.1-0.2,0.4-0.4,0.5-0.6c0.3-0.4,0.6-0.7,0.9-1
	c0.3-0.3,0.7-0.5,1.1-0.7c0.4-0.2,0.7-0.4,1.1-0.5c0.4-0.2,0.9-0.2,1.4-0.3c0.3,0,0.5-0.1,0.7-0.1c0.2,0,0.3,0.1,0.5,0.1
	c0.4,0,0.9,0.1,1.3,0.3c0.4,0.1,0.8,0.3,1.2,0.5c0.1,0.1,0.3,0.1,0.5,0.2l109.9,67.1V141.5z"/>
</svg>
